<svg width="24" height="20" viewBox="0 0 24 20" fill="none" xmlns="http://www.w3.org/2000/svg">
<path d="M20.317 2.3698C18.761 1.65556 17.1189 1.14624 15.4319 0.854597C15.4166 0.851738 15.4007 0.853785 15.3866 0.860445C15.3726 0.867106 15.3609 0.878042 15.3534 0.891697C15.1424 1.267 14.9087 1.7565 14.7451 2.1412C12.9004 1.865 11.0651 1.865 9.2583 2.1412C9.0947 1.7479 8.8525 1.267 8.6406 0.891697C8.63275 0.878353 8.62106 0.867685 8.60706 0.861085C8.59306 0.854484 8.57739 0.852258 8.5621 0.854697C6.87488 1.14567 5.23269 1.65494 3.6769 2.3697C3.66359 2.37539 3.65237 2.38507 3.6448 2.3974C0.533404 7.0458 -0.318996 11.5799 0.0992041 16.0578C0.100387 16.0688 0.103757 16.0794 0.109117 16.089C0.114476 16.0987 0.121715 16.1071 0.130404 16.1139C2.1832 17.6215 4.1717 18.5367 6.1233 19.1433C6.13848 19.1478 6.15467 19.1476 6.16972 19.1427C6.18477 19.1377 6.19795 19.1283 6.2075 19.1157C6.6691 18.4853 7.0806 17.8205 7.4335 17.1215C7.43835 17.1119 7.44112 17.1014 7.44162 17.0907C7.44213 17.08 7.44036 17.0693 7.43643 17.0593C7.4325 17.0493 7.4265 17.0403 7.41882 17.0328C7.41115 17.0253 7.40197 17.0195 7.3919 17.0158C6.7391 16.7682 6.1176 16.4663 5.5197 16.1235C5.5088 16.1171 5.49964 16.1081 5.49303 16.0973C5.48643 16.0865 5.48258 16.0743 5.48183 16.0617C5.48108 16.0491 5.48345 16.0364 5.48873 16.025C5.49401 16.0135 5.50203 16.0035 5.5121 15.9958C5.6379 15.9015 5.7638 15.8035 5.8839 15.7044C5.89457 15.6956 5.90749 15.69 5.9212 15.6881C5.93491 15.6862 5.94887 15.6883 5.9615 15.6939C9.8893 17.4872 14.1415 17.4872 18.0229 15.6939C18.0355 15.6879 18.0496 15.6856 18.0635 15.6873C18.0774 15.6889 18.0906 15.6945 18.1014 15.7034C18.2216 15.8024 18.3474 15.9015 18.4742 15.9958C18.4843 16.0034 18.4924 16.0133 18.4977 16.0247C18.5031 16.0362 18.5055 16.0488 18.5049 16.0614C18.5042 16.074 18.5005 16.0862 18.494 16.097C18.4875 16.1078 18.4784 16.1169 18.4676 16.1234C17.8695 16.4727 17.2429 16.7709 16.5946 17.0148C16.5845 17.0186 16.5754 17.0246 16.5678 17.0322C16.5602 17.0398 16.5542 17.049 16.5504 17.059C16.5465 17.0691 16.5449 17.0799 16.5455 17.0906C16.5461 17.1014 16.549 17.1119 16.5539 17.1215C16.9143 17.8195 17.3258 18.4843 17.7789 19.1147C17.7882 19.1277 17.8013 19.1375 17.8164 19.1426C17.8315 19.1477 17.8478 19.148 17.8631 19.1433C19.8241 18.5366 21.8126 17.6214 23.8654 16.1139C23.8742 16.1075 23.8816 16.0992 23.887 16.0897C23.8924 16.0802 23.8957 16.0696 23.8967 16.0587C24.3971 10.8817 23.0585 6.3848 20.3482 2.3983C20.3415 2.38535 20.3305 2.3753 20.317 2.3698ZM8.02 13.3312C6.8375 13.3312 5.8631 12.2455 5.8631 10.9122C5.8631 9.579 6.8186 8.4933 8.0201 8.4933C9.2309 8.4933 10.1958 9.5885 10.1769 10.9123C10.1769 12.2455 9.2214 13.3312 8.02 13.3312ZM15.9948 13.3312C14.8123 13.3312 13.8379 12.2455 13.8379 10.9122C13.8379 9.579 14.7933 8.4933 15.9948 8.4933C17.2056 8.4933 18.1705 9.5885 18.1516 10.9123C18.1516 12.2455 17.2056 13.3312 15.9948 13.3312Z" fill="#5865F2"/>
</svg>
