<?xml version="1.0" encoding="UTF-8" standalone="no"?>
<!-- Created with Inkscape (http://www.inkscape.org/) -->

<svg
   width="212mm"
   height="160mm"
   viewBox="0 0 212 160"
   version="1.1"
   id="svg5"
   inkscape:version="1.1.1 (3bf5ae0d25, 2021-09-20)"
   sodipodi:docname="meteor.svg"
   xmlns:inkscape="http://www.inkscape.org/namespaces/inkscape"
   xmlns:sodipodi="http://sodipodi.sourceforge.net/DTD/sodipodi-0.dtd"
   xmlns="http://www.w3.org/2000/svg"
   xmlns:svg="http://www.w3.org/2000/svg">
  <sodipodi:namedview
     id="namedview7"
     pagecolor="#505050"
     bordercolor="#eeeeee"
     borderopacity="1"
     inkscape:pageshadow="0"
     inkscape:pageopacity="0"
     inkscape:pagecheckerboard="0"
     inkscape:document-units="mm"
     showgrid="false"
     width="212mm"
     inkscape:zoom="1.0482005"
     inkscape:cx="411.65789"
     inkscape:cy="323.88842"
     inkscape:window-width="1920"
     inkscape:window-height="1017"
     inkscape:window-x="-8"
     inkscape:window-y="-8"
     inkscape:window-maximized="1"
     inkscape:current-layer="layer1" />
  <defs
     id="defs2" />
  <g
     inkscape:label="Vrstva 1"
     inkscape:groupmode="layer"
     id="layer1">
    <path
       style="fill:rgb(75, 75, 75);stroke:none;stroke-width:0.26476"
       d="M 89.450628,74.176636 V 63.574407 l 0.271869,-4.450284 3.695092,-2.480916 8.991781,-5.261364 C 100.48803,49.297452 97.175886,48.041884 94.739905,46.607926 89.127189,43.304278 83.459456,40.091272 77.814205,36.843544 60.418822,26.836097 43.152752,16.598319 25.714784,6.6619111 22.884755,5.0493124 20.07932,3.394039 17.251934,1.7766691 16.241153,1.1983174 14.764914,-0.05380551 13.549438,0.01351802 11.15974,0.14525081 7.6764842,3.1557535 5.6155158,4.354601 4.2252289,5.163286 1.1698747,6.198858 0.48570631,7.7348563 -0.17783384,9.2247347 0.32623497,11.862304 0.32623497,13.478879 c 0,2.43003 -0.8309468,6.704054 0.15947134,8.924691 0.57230099,1.282869 2.92100569,2.063194 4.07195309,2.740676 3.8691095,2.277359 7.7763016,4.490839 11.6364186,6.783302 15.310354,9.093273 30.840742,17.8523 46.281212,26.723984 8.834687,5.076345 17.628113,11.488308 26.975338,15.525104 M 53.483512,7.1175412 v 0.530112 l 46.016745,26.5866828 11.900883,6.871567 4.4959,2.177429 3.96696,-1.933845 8.99178,-5.075817 V 35.743562 L 83.896884,9.765183 71.467069,2.571836 66.44225,0 62.47529,2.028207 53.483512,7.1175412 M 158.47575,38.31566 c -3.91354,0.888465 -8.11879,4.683264 -11.63641,6.623739 -9.4345,5.205166 -18.77908,10.67565 -28.0332,16.196233 -2.97231,1.773227 -5.99011,3.476208 -8.99178,5.200923 -1.00655,0.57835 -3.02679,1.272531 -3.54302,2.377284 -0.50936,1.090707 -0.15948,2.953777 -0.15948,4.137522 v 9.276945 33.131964 10.33719 c 0,1.14265 -0.37183,3.1022 0.27187,4.10067 1.44292,2.23893 6.17074,3.82237 8.45545,5.13652 6.97259,4.01135 13.93911,8.03516 20.89266,12.07964 5.63441,3.27741 11.32091,6.47107 16.9257,9.79991 1.54632,0.91841 4.7667,3.60423 6.6116,3.25461 3.88207,-0.73579 8.47396,-4.72329 11.90088,-6.69238 9.18141,-5.2754 18.35037,-10.57944 27.50426,-15.90414 3.08234,-1.79284 6.19428,-3.53267 9.25625,-5.36023 1.12159,-0.66953 3.01251,-1.32341 3.69509,-2.49443 0.59478,-1.01994 0.27187,-2.78044 0.27187,-3.92017 v -9.0119 -33.927136 -9.807063 c 0,-1.18056 0.361,-3.107517 -0.27187,-4.153685 -1.03643,-1.713594 -4.38401,-2.81092 -6.07526,-3.801169 -5.36201,-3.138786 -10.69229,-6.353389 -16.13231,-9.354878 -7.67449,-4.233995 -15.1054,-8.910371 -22.74391,-13.208522 -1.9105,-1.075062 -5.9597,-4.525821 -8.19839,-4.017447 M 26.772641,53.237236 v 10.867288 c 0,1.201497 -0.403308,3.318494 0.271869,4.365731 0.880401,1.366099 3.377735,2.225142 4.752948,3.016066 l 11.900883,6.891454 c 9.706625,5.584988 19.491266,11.074821 29.091045,16.844289 5.126636,3.08101 10.968645,7.629896 16.661242,9.435996 V 93.790762 L 89.17876,89.446496 84.425809,86.481587 72.524929,79.582975 45.285125,63.83655 Z"
       id="path6102" />
    <path
       style="fill:#000000;stroke-width:0.265487"
       id="path1000"
       d="" />
    <path
       style="fill:#000000;stroke-width:0.265487"
       id="path890"
       d="" />
  </g>
</svg>
