<svg width="24" height="18" viewBox="0 0 24 18" fill="none" xmlns="http://www.w3.org/2000/svg">
<path d="M23.498 3.186C23.3624 2.67528 23.095 2.20914 22.7226 1.83426C22.3502 1.45939 21.8858 1.18894 21.376 1.05C19.505 0.545 12 0.545 12 0.545C12 0.545 4.495 0.545 2.623 1.05C2.11341 1.18919 1.64929 1.45973 1.27708 1.83458C0.904861 2.20943 0.637591 2.67544 0.502 3.186C0 5.07 0 9 0 9C0 9 0 12.93 0.502 14.814C0.637586 15.3247 0.904975 15.7909 1.27739 16.1657C1.64981 16.5406 2.11418 16.8111 2.624 16.95C4.495 17.455 12 17.455 12 17.455C12 17.455 19.505 17.455 21.377 16.95C21.8869 16.8112 22.3513 16.5407 22.7237 16.1658C23.0961 15.791 23.3635 15.3248 23.499 14.814C24 12.93 24 9 24 9C24 9 24 5.07 23.498 3.186ZM9.545 12.568V5.432L15.818 9L9.545 12.568Z" fill="#FF0000"/>
<path d="M9.545 5.432V12.568L15.818 9L9.545 5.432Z" fill="white"/>
</svg>
